<svg width="1250" height="337" viewBox="0 0 1250 337" fill="none" xmlns="http://www.w3.org/2000/svg">
<path d="M47.4 76.8C41.5333 74.8 36.2 72.8 31.4 70.8C26.6 68.6667 22.4667 66.1333 19 63.2C15.5333 60.2667 12.8 56.8 10.8 52.8C8.93333 48.6667 8 43.6667 8 37.8C8 26.4667 12.3333 17.4 21 10.6C29.8 3.79999 42.0667 0.399995 57.8 0.399995C63.5333 0.399995 68.8667 0.799994 73.8 1.59999C78.7333 2.4 82.9333 3.66666 86.4 5.39999C90 6.99999 92.8 9.13333 94.8 11.8C96.8 14.3333 97.8 17.3333 97.8 20.8C97.8 24.2667 97 27.2667 95.4 29.8C93.8 32.2 91.8667 34.2667 89.6 36C86.6667 34.1333 82.7333 32.5333 77.8 31.2C72.8667 29.7333 67.4667 29 61.6 29C55.6 29 51.2 29.8667 48.4 31.6C45.6 33.2 44.2 35.2667 44.2 37.8C44.2 39.8 45.0667 41.4667 46.8 42.8C48.5333 44 51.1333 45.1333 54.6 46.2L65.2 49.6C77.7333 53.6 87.3333 58.7333 94 65C100.8 71.1333 104.2 79.5333 104.2 90.2C104.2 101.533 99.7333 110.733 90.8 117.8C81.8667 124.733 68.7333 128.2 51.4 128.2C45.2667 128.2 39.5333 127.667 34.2 126.6C29 125.667 24.4 124.267 20.4 122.4C16.5333 120.4 13.4667 118 11.2 115.2C9.06667 112.267 8 108.933 8 105.2C8 101.333 9.13333 98.0667 11.4 95.4C13.6667 92.6 16.1333 90.4667 18.8 89C22.5333 91.9333 27.0667 94.4667 32.4 96.6C37.8667 98.7333 43.8 99.8 50.2 99.8C56.7333 99.8 61.3333 98.8 64 96.8C66.6667 94.8 68 92.4667 68 89.8C68 87.1333 66.9333 85.1333 64.8 83.8C62.6667 82.3333 59.6667 80.9333 55.8 79.6L47.4 76.8ZM119.97 29.2C121.304 28.8 123.37 28.4 126.17 28C129.104 27.6 132.104 27.4 135.17 27.4C138.104 27.4 140.704 27.6 142.97 28C145.37 28.4 147.37 29.2 148.97 30.4C150.57 31.6 151.77 33.2667 152.57 35.4C153.504 37.4 153.97 40.0667 153.97 43.4V86.4C153.97 91.8667 155.304 95.8 157.97 98.2C160.637 100.467 164.504 101.6 169.57 101.6C172.637 101.6 175.104 101.333 176.97 100.8C178.97 100.267 180.504 99.7333 181.57 99.2V29.2C182.904 28.8 184.97 28.4 187.77 28C190.704 27.6 193.704 27.4 196.77 27.4C199.704 27.4 202.304 27.6 204.57 28C206.97 28.4 208.97 29.2 210.57 30.4C212.17 31.6 213.37 33.2667 214.17 35.4C215.104 37.4 215.57 40.0667 215.57 43.4V104.2C215.57 110.867 212.77 115.867 207.17 119.2C202.504 122.133 196.904 124.333 190.37 125.8C183.97 127.4 176.97 128.2 169.37 128.2C162.17 128.2 155.504 127.4 149.37 125.8C143.37 124.2 138.17 121.733 133.77 118.4C129.37 115.067 125.97 110.8 123.57 105.6C121.17 100.267 119.97 93.8667 119.97 86.4V29.2ZM280.977 24.8C288.977 24.8 296.377 25.8667 303.177 28C310.11 30 316.043 33.1333 320.977 37.4C325.91 41.6667 329.777 47.0667 332.577 53.6C335.377 60 336.777 67.6667 336.777 76.6C336.777 85.1333 335.577 92.6 333.177 99C330.777 105.4 327.377 110.8 322.977 115.2C318.577 119.467 313.243 122.667 306.977 124.8C300.843 126.933 293.977 128 286.377 128C280.643 128 275.31 127.133 270.377 125.4V158.6C269.043 159 266.91 159.4 263.977 159.8C261.043 160.333 258.043 160.6 254.977 160.6C252.043 160.6 249.377 160.4 246.977 160C244.71 159.6 242.777 158.8 241.177 157.6C239.577 156.4 238.377 154.733 237.577 152.6C236.777 150.6 236.377 147.933 236.377 144.6V48.6C236.377 45 237.11 42.0667 238.577 39.8C240.177 37.5333 242.31 35.4667 244.977 33.6C249.11 30.9333 254.243 28.8 260.377 27.2C266.51 25.6 273.377 24.8 280.977 24.8ZM281.377 101.2C295.11 101.2 301.977 93 301.977 76.6C301.977 68.0667 300.243 61.7333 296.777 57.6C293.443 53.4667 288.577 51.4 282.177 51.4C279.643 51.4 277.377 51.7333 275.377 52.4C273.377 52.9333 271.643 53.6 270.177 54.4V98.4C271.777 99.2 273.51 99.8667 275.377 100.4C277.243 100.933 279.243 101.2 281.377 101.2ZM404.769 128.2C396.902 128.2 389.569 127.133 382.769 125C376.102 122.733 370.235 119.4 365.169 115C360.235 110.6 356.302 105.067 353.369 98.4C350.569 91.7333 349.169 83.9333 349.169 75C349.169 66.2 350.569 58.6667 353.369 52.4C356.302 46 360.102 40.8 364.769 36.8C369.435 32.6667 374.769 29.6667 380.769 27.8C386.769 25.8 392.902 24.8 399.169 24.8C406.235 24.8 412.635 25.8667 418.369 28C424.235 30.1333 429.235 33.0667 433.369 36.8C437.635 40.5333 440.902 45 443.169 50.2C445.569 55.4 446.769 61.0667 446.769 67.2C446.769 71.7333 445.502 75.2 442.969 77.6C440.435 80 436.902 81.5333 432.369 82.2L382.969 89.6C384.435 94 387.435 97.3333 391.969 99.6C396.502 101.733 401.702 102.8 407.569 102.8C413.035 102.8 418.169 102.133 422.969 100.8C427.902 99.3333 431.902 97.6667 434.969 95.8C437.102 97.1333 438.902 99 440.369 101.4C441.835 103.8 442.569 106.333 442.569 109C442.569 115 439.769 119.467 434.169 122.4C429.902 124.667 425.102 126.2 419.769 127C414.435 127.8 409.435 128.2 404.769 128.2ZM399.169 49.6C395.969 49.6 393.169 50.1333 390.769 51.2C388.502 52.2667 386.635 53.6667 385.169 55.4C383.702 57 382.569 58.8667 381.769 61C381.102 63 380.702 65.0667 380.569 67.2L414.769 61.6C414.369 58.9333 412.902 56.2667 410.369 53.6C407.835 50.9333 404.102 49.6 399.169 49.6ZM497.134 124.8C495.801 125.2 493.668 125.6 490.734 126C487.934 126.4 485.001 126.6 481.934 126.6C479.001 126.6 476.334 126.4 473.934 126C471.668 125.6 469.734 124.8 468.134 123.6C466.534 122.4 465.268 120.8 464.334 118.8C463.534 116.667 463.134 113.933 463.134 110.6V50.6C463.134 47.5333 463.668 44.9333 464.734 42.8C465.934 40.5333 467.601 38.5333 469.734 36.8C471.868 35.0667 474.468 33.5333 477.534 32.2C480.734 30.7333 484.134 29.4667 487.734 28.4C491.334 27.3333 495.068 26.5333 498.934 26C502.801 25.3333 506.668 25 510.534 25C516.934 25 522.001 26.2667 525.734 28.8C529.468 31.2 531.334 35.2 531.334 40.8C531.334 42.6667 531.068 44.5333 530.534 46.4C530.001 48.1333 529.334 49.7333 528.534 51.2C525.734 51.2 522.868 51.3333 519.934 51.6C517.001 51.8667 514.134 52.2667 511.334 52.8C508.534 53.3333 505.868 53.9333 503.334 54.6C500.934 55.1333 498.868 55.8 497.134 56.6V124.8Z" fill="#894BEE"/>
<path d="M600.161 51.6C596.828 51.6 593.628 52.1333 590.561 53.2C587.628 54.2667 585.028 55.8667 582.761 58C580.628 60 578.894 62.5333 577.561 65.6C576.228 68.6667 575.561 72.2667 575.561 76.4C575.561 84.6667 577.894 90.8667 582.561 95C587.361 99.1333 593.161 101.2 599.961 101.2C603.961 101.2 607.428 100.733 610.361 99.8C613.294 98.8667 615.894 97.8667 618.161 96.8C620.828 98.6667 622.828 100.733 624.161 103C625.494 105.133 626.161 107.733 626.161 110.8C626.161 116.267 623.561 120.533 618.361 123.6C613.161 126.533 605.961 128 596.761 128C588.361 128 580.761 126.8 573.961 124.4C567.161 121.867 561.294 118.4 556.361 114C551.561 109.467 547.828 104.067 545.161 97.8C542.494 91.5333 541.161 84.6 541.161 77C541.161 68.2 542.561 60.5333 545.361 54C548.294 47.3333 552.228 41.8667 557.161 37.6C562.094 33.3333 567.761 30.1333 574.161 28C580.694 25.8667 587.561 24.8 594.761 24.8C604.361 24.8 611.761 26.5333 616.961 30C622.161 33.4667 624.761 37.9333 624.761 43.4C624.761 45.9333 624.161 48.3333 622.961 50.6C621.761 52.7333 620.361 54.6 618.761 56.2C616.494 55.1333 613.761 54.1333 610.561 53.2C607.361 52.1333 603.894 51.6 600.161 51.6ZM740.883 76.4C740.883 84.6667 739.616 92.0667 737.083 98.6C734.549 105 730.949 110.4 726.283 114.8C721.749 119.2 716.283 122.533 709.883 124.8C703.483 127.067 696.349 128.2 688.483 128.2C680.616 128.2 673.483 127 667.083 124.6C660.683 122.2 655.149 118.8 650.483 114.4C645.949 109.867 642.416 104.4 639.883 98C637.349 91.6 636.083 84.4 636.083 76.4C636.083 68.5333 637.349 61.4 639.883 55C642.416 48.6 645.949 43.2 650.483 38.8C655.149 34.2667 660.683 30.8 667.083 28.4C673.483 26 680.616 24.8 688.483 24.8C696.349 24.8 703.483 26.0667 709.883 28.6C716.283 31 721.749 34.4667 726.283 39C730.949 43.4 734.549 48.8 737.083 55.2C739.616 61.6 740.883 68.6667 740.883 76.4ZM670.883 76.4C670.883 84.5333 672.416 90.8 675.483 95.2C678.683 99.4667 683.083 101.6 688.683 101.6C694.283 101.6 698.549 99.4 701.483 95C704.549 90.6 706.083 84.4 706.083 76.4C706.083 68.4 704.549 62.2667 701.483 58C698.416 53.6 694.083 51.4 688.483 51.4C682.883 51.4 678.549 53.6 675.483 58C672.416 62.2667 670.883 68.4 670.883 76.4ZM819.07 63.4C819.07 59.2667 817.87 56.2667 815.47 54.4C813.204 52.4 810.07 51.4 806.07 51.4C803.404 51.4 800.737 51.7333 798.07 52.4C795.537 53.0667 793.337 54.0667 791.47 55.4V124.8C790.137 125.2 788.004 125.6 785.07 126C782.27 126.4 779.337 126.6 776.27 126.6C773.337 126.6 770.67 126.4 768.27 126C766.004 125.6 764.07 124.8 762.47 123.6C760.87 122.4 759.604 120.8 758.67 118.8C757.87 116.667 757.47 113.933 757.47 110.6V50.6C757.47 47 758.204 44.0667 759.67 41.8C761.27 39.5333 763.404 37.4667 766.07 35.6C770.604 32.4 776.27 29.8 783.07 27.8C790.004 25.8 797.67 24.8 806.07 24.8C821.137 24.8 832.737 28.1333 840.87 34.8C849.004 41.3333 853.07 50.4667 853.07 62.2V124.8C851.737 125.2 849.604 125.6 846.67 126C843.87 126.4 840.937 126.6 837.87 126.6C834.937 126.6 832.27 126.4 829.87 126C827.604 125.6 825.67 124.8 824.07 123.6C822.47 122.4 821.204 120.8 820.27 118.8C819.47 116.667 819.07 113.933 819.07 110.6V63.4ZM908.072 91.6C908.072 95.0667 909.139 97.5333 911.272 99C913.539 100.467 916.672 101.2 920.672 101.2C922.672 101.2 924.739 101.067 926.872 100.8C929.005 100.4 930.872 99.9333 932.472 99.4C933.672 100.867 934.672 102.533 935.472 104.4C936.405 106.133 936.872 108.267 936.872 110.8C936.872 115.867 934.939 120 931.072 123.2C927.339 126.4 920.672 128 911.072 128C899.339 128 890.272 125.333 883.872 120C877.605 114.667 874.472 106 874.472 94V8.4C875.939 8 878.005 7.59999 880.672 7.19999C883.472 6.66666 886.405 6.39999 889.472 6.39999C895.339 6.39999 899.872 7.46666 903.072 9.6C906.405 11.6 908.072 15.9333 908.072 22.6V35.4H934.272C935.072 36.8667 935.805 38.7333 936.472 41C937.272 43.1333 937.672 45.5333 937.672 48.2C937.672 52.8667 936.605 56.2667 934.472 58.4C932.472 60.4 929.739 61.4 926.272 61.4H908.072V91.6ZM1004.38 128.2C996.511 128.2 989.178 127.133 982.378 125C975.711 122.733 969.845 119.4 964.778 115C959.845 110.6 955.911 105.067 952.978 98.4C950.178 91.7333 948.778 83.9333 948.778 75C948.778 66.2 950.178 58.6667 952.978 52.4C955.911 46 959.711 40.8 964.378 36.8C969.045 32.6667 974.378 29.6667 980.378 27.8C986.378 25.8 992.511 24.8 998.778 24.8C1005.84 24.8 1012.24 25.8667 1017.98 28C1023.84 30.1333 1028.84 33.0667 1032.98 36.8C1037.24 40.5333 1040.51 45 1042.78 50.2C1045.18 55.4 1046.38 61.0667 1046.38 67.2C1046.38 71.7333 1045.11 75.2 1042.58 77.6C1040.04 80 1036.51 81.5333 1031.98 82.2L982.578 89.6C984.045 94 987.045 97.3333 991.578 99.6C996.111 101.733 1001.31 102.8 1007.18 102.8C1012.64 102.8 1017.78 102.133 1022.58 100.8C1027.51 99.3333 1031.51 97.6667 1034.58 95.8C1036.71 97.1333 1038.51 99 1039.98 101.4C1041.44 103.8 1042.18 106.333 1042.18 109C1042.18 115 1039.38 119.467 1033.78 122.4C1029.51 124.667 1024.71 126.2 1019.38 127C1014.04 127.8 1009.04 128.2 1004.38 128.2ZM998.778 49.6C995.578 49.6 992.778 50.1333 990.378 51.2C988.111 52.2667 986.245 53.6667 984.778 55.4C983.311 57 982.178 58.8667 981.378 61C980.711 63 980.311 65.0667 980.178 67.2L1014.38 61.6C1013.98 58.9333 1012.51 56.2667 1009.98 53.6C1007.44 50.9333 1003.71 49.6 998.778 49.6ZM1124.34 63.4C1124.34 59.2667 1123.14 56.2667 1120.74 54.4C1118.48 52.4 1115.34 51.4 1111.34 51.4C1108.68 51.4 1106.01 51.7333 1103.34 52.4C1100.81 53.0667 1098.61 54.0667 1096.74 55.4V124.8C1095.41 125.2 1093.28 125.6 1090.34 126C1087.54 126.4 1084.61 126.6 1081.54 126.6C1078.61 126.6 1075.94 126.4 1073.54 126C1071.28 125.6 1069.34 124.8 1067.74 123.6C1066.14 122.4 1064.88 120.8 1063.94 118.8C1063.14 116.667 1062.74 113.933 1062.74 110.6V50.6C1062.74 47 1063.48 44.0667 1064.94 41.8C1066.54 39.5333 1068.68 37.4667 1071.34 35.6C1075.88 32.4 1081.54 29.8 1088.34 27.8C1095.28 25.8 1102.94 24.8 1111.34 24.8C1126.41 24.8 1138.01 28.1333 1146.14 34.8C1154.28 41.3333 1158.34 50.4667 1158.34 62.2V124.8C1157.01 125.2 1154.88 125.6 1151.94 126C1149.14 126.4 1146.21 126.6 1143.14 126.6C1140.21 126.6 1137.54 126.4 1135.14 126C1132.88 125.6 1130.94 124.8 1129.34 123.6C1127.74 122.4 1126.48 120.8 1125.54 118.8C1124.74 116.667 1124.34 113.933 1124.34 110.6V63.4ZM1213.35 91.6C1213.35 95.0667 1214.41 97.5333 1216.55 99C1218.81 100.467 1221.95 101.2 1225.95 101.2C1227.95 101.2 1230.01 101.067 1232.15 100.8C1234.28 100.4 1236.15 99.9333 1237.75 99.4C1238.95 100.867 1239.95 102.533 1240.75 104.4C1241.68 106.133 1242.15 108.267 1242.15 110.8C1242.15 115.867 1240.21 120 1236.35 123.2C1232.61 126.4 1225.95 128 1216.35 128C1204.61 128 1195.55 125.333 1189.15 120C1182.88 114.667 1179.75 106 1179.75 94V8.4C1181.21 8 1183.28 7.59999 1185.95 7.19999C1188.75 6.66666 1191.68 6.39999 1194.75 6.39999C1200.61 6.39999 1205.15 7.46666 1208.35 9.6C1211.68 11.6 1213.35 15.9333 1213.35 22.6V35.4H1239.55C1240.35 36.8667 1241.08 38.7333 1241.75 41C1242.55 43.1333 1242.95 45.5333 1242.95 48.2C1242.95 52.8667 1241.88 56.2667 1239.75 58.4C1237.75 60.4 1235.01 61.4 1231.55 61.4H1213.35V91.6Z" fill="white"/>
<path d="M332 230L339.047 234.61C515.313 349.93 743.592 348.112 918 230V230" stroke="#894BEE" stroke-width="33"/>
</svg>
