<svg width="1235" height="161" viewBox="0 0 1235 161" fill="none" xmlns="http://www.w3.org/2000/svg">
<path d="M39.4 76.4C33.5333 74.4 28.2 72.4 23.4 70.4C18.6 68.2667 14.4667 65.7333 11 62.8C7.5333 59.8667 4.8 56.4 2.8 52.4C0.93333 48.2667 0 43.2667 0 37.4C0 26.0667 4.3333 17 13 10.2C21.8 3.4 34.0667 0 49.8 0C55.5333 0 60.8667 0.399999 65.8 1.2C70.7333 2.00001 74.9333 3.26667 78.4 5C82 6.6 84.8 8.73334 86.8 11.4C88.8 13.9333 89.8 16.9333 89.8 20.4C89.8 23.8667 89 26.8667 87.4 29.4C85.8 31.8 83.8667 33.8667 81.6 35.6C78.6667 33.7333 74.7333 32.1333 69.8 30.8C64.8667 29.3333 59.4667 28.6 53.6 28.6C47.6 28.6 43.2 29.4667 40.4 31.2C37.6 32.8 36.2 34.8667 36.2 37.4C36.2 39.4 37.0667 41.0667 38.8 42.4C40.5333 43.6 43.1333 44.7333 46.6 45.8L57.2 49.2C69.7333 53.2 79.3333 58.3333 86 64.6C92.8 70.7333 96.2 79.1333 96.2 89.8C96.2 101.133 91.7333 110.333 82.8 117.4C73.8667 124.333 60.7333 127.8 43.4 127.8C37.2667 127.8 31.5333 127.267 26.2 126.2C21 125.267 16.4 123.867 12.4 122C8.5333 120 5.4667 117.6 3.2 114.8C1.06667 111.867 0 108.533 0 104.8C0 100.933 1.13333 97.6667 3.4 95C5.6667 92.2 8.1333 90.0667 10.8 88.6C14.5333 91.5333 19.0667 94.0667 24.4 96.2C29.8667 98.3333 35.8 99.4 42.2 99.4C48.7333 99.4 53.3333 98.4 56 96.4C58.6667 94.4 60 92.0667 60 89.4C60 86.7333 58.9333 84.7333 56.8 83.4C54.6667 81.9333 51.6667 80.5333 47.8 79.2L39.4 76.4ZM111.97 28.8C113.304 28.4 115.37 28 118.17 27.6C121.104 27.2 124.104 27 127.17 27C130.104 27 132.704 27.2 134.97 27.6C137.37 28 139.37 28.8 140.97 30C142.57 31.2 143.77 32.8667 144.57 35C145.504 37 145.97 39.6667 145.97 43V86C145.97 91.4667 147.304 95.4 149.97 97.8C152.637 100.067 156.504 101.2 161.57 101.2C164.637 101.2 167.104 100.933 168.97 100.4C170.97 99.867 172.504 99.3333 173.57 98.8V28.8C174.904 28.4 176.97 28 179.77 27.6C182.704 27.2 185.704 27 188.77 27C191.704 27 194.304 27.2 196.57 27.6C198.97 28 200.97 28.8 202.57 30C204.17 31.2 205.37 32.8667 206.17 35C207.104 37 207.57 39.6667 207.57 43V103.8C207.57 110.467 204.77 115.467 199.17 118.8C194.504 121.733 188.904 123.933 182.37 125.4C175.97 127 168.97 127.8 161.37 127.8C154.17 127.8 147.504 127 141.37 125.4C135.37 123.8 130.17 121.333 125.77 118C121.37 114.667 117.97 110.4 115.57 105.2C113.17 99.867 111.97 93.4667 111.97 86V28.8ZM272.977 24.4C280.977 24.4 288.377 25.4667 295.177 27.6C302.11 29.6 308.043 32.7333 312.977 37C317.91 41.2667 321.777 46.6667 324.577 53.2C327.377 59.6 328.777 67.2667 328.777 76.2C328.777 84.7333 327.577 92.2 325.177 98.6C322.777 105 319.377 110.4 314.977 114.8C310.577 119.067 305.243 122.267 298.977 124.4C292.843 126.533 285.977 127.6 278.377 127.6C272.643 127.6 267.31 126.733 262.377 125V158.2C261.043 158.6 258.91 159 255.977 159.4C253.043 159.933 250.043 160.2 246.977 160.2C244.043 160.2 241.377 160 238.977 159.6C236.71 159.2 234.777 158.4 233.177 157.2C231.577 156 230.377 154.333 229.577 152.2C228.777 150.2 228.377 147.533 228.377 144.2V48.2C228.377 44.6 229.11 41.6667 230.577 39.4C232.177 37.1333 234.31 35.0667 236.977 33.2C241.11 30.5333 246.243 28.4 252.377 26.8C258.51 25.2 265.377 24.4 272.977 24.4ZM273.377 100.8C287.11 100.8 293.977 92.6 293.977 76.2C293.977 67.6667 292.243 61.3333 288.777 57.2C285.443 53.0667 280.577 51 274.177 51C271.643 51 269.377 51.3333 267.377 52C265.377 52.5333 263.643 53.2 262.177 54V98C263.777 98.8 265.51 99.4667 267.377 100C269.243 100.533 271.243 100.8 273.377 100.8ZM396.769 127.8C388.902 127.8 381.569 126.733 374.769 124.6C368.102 122.333 362.235 119 357.169 114.6C352.235 110.2 348.302 104.667 345.369 98C342.569 91.3333 341.169 83.5333 341.169 74.6C341.169 65.8 342.569 58.2667 345.369 52C348.302 45.6 352.102 40.4 356.769 36.4C361.435 32.2667 366.769 29.2667 372.769 27.4C378.769 25.4 384.902 24.4 391.169 24.4C398.235 24.4 404.635 25.4667 410.369 27.6C416.235 29.7333 421.235 32.6667 425.369 36.4C429.635 40.1333 432.902 44.6 435.169 49.8C437.569 55 438.769 60.6667 438.769 66.8C438.769 71.3333 437.502 74.8 434.969 77.2C432.435 79.6 428.902 81.1333 424.369 81.8L374.969 89.2C376.435 93.6 379.435 96.9333 383.969 99.2C388.502 101.333 393.702 102.4 399.569 102.4C405.035 102.4 410.169 101.733 414.969 100.4C419.902 98.9333 423.902 97.2667 426.969 95.4C429.102 96.7333 430.902 98.6 432.369 101C433.835 103.4 434.569 105.933 434.569 108.6C434.569 114.6 431.769 119.067 426.169 122C421.902 124.267 417.102 125.8 411.769 126.6C406.435 127.4 401.435 127.8 396.769 127.8ZM391.169 49.2C387.969 49.2 385.169 49.7333 382.769 50.8C380.502 51.8667 378.635 53.2667 377.169 55C375.702 56.6 374.569 58.4667 373.769 60.6C373.102 62.6 372.702 64.6667 372.569 66.8L406.769 61.2C406.369 58.5333 404.902 55.8667 402.369 53.2C399.835 50.5333 396.102 49.2 391.169 49.2ZM489.134 124.4C487.801 124.8 485.668 125.2 482.734 125.6C479.934 126 477.001 126.2 473.934 126.2C471.001 126.2 468.334 126 465.934 125.6C463.668 125.2 461.734 124.4 460.134 123.2C458.534 122 457.268 120.4 456.334 118.4C455.534 116.267 455.134 113.533 455.134 110.2V50.2C455.134 47.1333 455.668 44.5333 456.734 42.4C457.934 40.1333 459.601 38.1333 461.734 36.4C463.868 34.6667 466.468 33.1333 469.534 31.8C472.734 30.3333 476.134 29.0667 479.734 28C483.334 26.9333 487.068 26.1333 490.934 25.6C494.801 24.9333 498.668 24.6 502.534 24.6C508.934 24.6 514.001 25.8667 517.734 28.4C521.468 30.8 523.334 34.8 523.334 40.4C523.334 42.2667 523.068 44.1333 522.534 46C522.001 47.7333 521.334 49.3333 520.534 50.8C517.734 50.8 514.868 50.9333 511.934 51.2C509.001 51.4667 506.134 51.8667 503.334 52.4C500.534 52.9333 497.868 53.5333 495.334 54.2C492.934 54.7333 490.868 55.4 489.134 56.2V124.4Z" fill="url(#paint0_linear_14_2)"/>
<path d="M592.161 51.2C588.828 51.2 585.628 51.7333 582.561 52.8C579.628 53.8667 577.028 55.4667 574.761 57.6C572.628 59.6 570.894 62.1333 569.561 65.2C568.228 68.2667 567.561 71.8667 567.561 76C567.561 84.2667 569.894 90.4667 574.561 94.6C579.361 98.7333 585.161 100.8 591.961 100.8C595.961 100.8 599.428 100.333 602.361 99.4C605.294 98.4667 607.894 97.4667 610.161 96.4C612.828 98.2667 614.828 100.333 616.161 102.6C617.494 104.733 618.161 107.333 618.161 110.4C618.161 115.867 615.561 120.133 610.361 123.2C605.161 126.133 597.961 127.6 588.761 127.6C580.361 127.6 572.761 126.4 565.961 124C559.161 121.467 553.294 118 548.361 113.6C543.561 109.067 539.828 103.667 537.161 97.4C534.494 91.1333 533.161 84.2 533.161 76.6C533.161 67.8 534.561 60.1333 537.361 53.6C540.294 46.9333 544.228 41.4667 549.161 37.2C554.094 32.9333 559.761 29.7333 566.161 27.6C572.694 25.4667 579.561 24.4 586.761 24.4C596.361 24.4 603.761 26.1333 608.961 29.6C614.161 33.0667 616.761 37.5333 616.761 43C616.761 45.5333 616.161 47.9333 614.961 50.2C613.761 52.3333 612.361 54.2 610.761 55.8C608.494 54.7333 605.761 53.7333 602.561 52.8C599.361 51.7333 595.894 51.2 592.161 51.2ZM732.883 76C732.883 84.2667 731.616 91.6667 729.083 98.2C726.549 104.6 722.949 110 718.283 114.4C713.749 118.8 708.283 122.133 701.883 124.4C695.483 126.667 688.349 127.8 680.483 127.8C672.616 127.8 665.483 126.6 659.083 124.2C652.683 121.8 647.149 118.4 642.483 114C637.949 109.467 634.416 104 631.883 97.6C629.349 91.2 628.083 84 628.083 76C628.083 68.1333 629.349 61 631.883 54.6C634.416 48.2 637.949 42.8 642.483 38.4C647.149 33.8667 652.683 30.4 659.083 28C665.483 25.6 672.616 24.4 680.483 24.4C688.349 24.4 695.483 25.6667 701.883 28.2C708.283 30.6 713.749 34.0667 718.283 38.6C722.949 43 726.549 48.4 729.083 54.8C731.616 61.2 732.883 68.2667 732.883 76ZM662.883 76C662.883 84.1333 664.416 90.4 667.483 94.8C670.683 99.0667 675.083 101.2 680.683 101.2C686.283 101.2 690.549 99 693.483 94.6C696.549 90.2 698.083 84 698.083 76C698.083 68 696.549 61.8667 693.483 57.6C690.416 53.2 686.083 51 680.483 51C674.883 51 670.549 53.2 667.483 57.6C664.416 61.8667 662.883 68 662.883 76ZM811.07 63C811.07 58.8667 809.87 55.8667 807.47 54C805.204 52 802.07 51 798.07 51C795.404 51 792.737 51.3333 790.07 52C787.537 52.6667 785.337 53.6667 783.47 55V124.4C782.137 124.8 780.004 125.2 777.07 125.6C774.27 126 771.337 126.2 768.27 126.2C765.337 126.2 762.67 126 760.27 125.6C758.004 125.2 756.07 124.4 754.47 123.2C752.87 122 751.604 120.4 750.67 118.4C749.87 116.267 749.47 113.533 749.47 110.2V50.2C749.47 46.6 750.204 43.6667 751.67 41.4C753.27 39.1333 755.404 37.0667 758.07 35.2C762.604 32 768.27 29.4 775.07 27.4C782.004 25.4 789.67 24.4 798.07 24.4C813.137 24.4 824.737 27.7333 832.87 34.4C841.004 40.9333 845.07 50.0667 845.07 61.8V124.4C843.737 124.8 841.604 125.2 838.67 125.6C835.87 126 832.937 126.2 829.87 126.2C826.937 126.2 824.27 126 821.87 125.6C819.604 125.2 817.67 124.4 816.07 123.2C814.47 122 813.204 120.4 812.27 118.4C811.47 116.267 811.07 113.533 811.07 110.2V63ZM900.072 91.2C900.072 94.6667 901.139 97.1333 903.272 98.6C905.539 100.067 908.672 100.8 912.672 100.8C914.672 100.8 916.739 100.667 918.872 100.4C921.005 100 922.872 99.5333 924.472 99C925.672 100.467 926.672 102.133 927.472 104C928.405 105.733 928.872 107.867 928.872 110.4C928.872 115.467 926.939 119.6 923.072 122.8C919.339 126 912.672 127.6 903.072 127.6C891.339 127.6 882.272 124.933 875.872 119.6C869.605 114.267 866.472 105.6 866.472 93.6V8.00001C867.939 7.60001 870.005 7.2 872.672 6.8C875.472 6.26667 878.405 6 881.472 6C887.339 6 891.872 7.06667 895.072 9.20001C898.405 11.2 900.072 15.5333 900.072 22.2V35H926.272C927.072 36.4667 927.805 38.3333 928.472 40.6C929.272 42.7333 929.672 45.1333 929.672 47.8C929.672 52.4667 928.605 55.8667 926.472 58C924.472 60 921.739 61 918.272 61H900.072V91.2ZM996.38 127.8C988.511 127.8 981.178 126.733 974.378 124.6C967.711 122.333 961.845 119 956.778 114.6C951.845 110.2 947.911 104.667 944.978 98C942.178 91.3333 940.778 83.5333 940.778 74.6C940.778 65.8 942.178 58.2667 944.978 52C947.911 45.6 951.711 40.4 956.378 36.4C961.045 32.2667 966.378 29.2667 972.378 27.4C978.378 25.4 984.511 24.4 990.778 24.4C997.84 24.4 1004.24 25.4667 1009.98 27.6C1015.84 29.7333 1020.84 32.6667 1024.98 36.4C1029.24 40.1333 1032.51 44.6 1034.78 49.8C1037.18 55 1038.38 60.6667 1038.38 66.8C1038.38 71.3333 1037.11 74.8 1034.58 77.2C1032.04 79.6 1028.51 81.1333 1023.98 81.8L974.578 89.2C976.045 93.6 979.045 96.9333 983.578 99.2C988.111 101.333 993.31 102.4 999.18 102.4C1004.64 102.4 1009.78 101.733 1014.58 100.4C1019.51 98.9333 1023.51 97.2667 1026.58 95.4C1028.71 96.7333 1030.51 98.6 1031.98 101C1033.44 103.4 1034.18 105.933 1034.18 108.6C1034.18 114.6 1031.38 119.067 1025.78 122C1021.51 124.267 1016.71 125.8 1011.38 126.6C1006.04 127.4 1001.04 127.8 996.38 127.8ZM990.778 49.2C987.578 49.2 984.778 49.7333 982.378 50.8C980.111 51.8667 978.245 53.2667 976.778 55C975.311 56.6 974.178 58.4667 973.378 60.6C972.711 62.6 972.311 64.6667 972.178 66.8L1006.38 61.2C1005.98 58.5333 1004.51 55.8667 1001.98 53.2C999.44 50.5333 995.71 49.2 990.778 49.2ZM1116.34 63C1116.34 58.8667 1115.14 55.8667 1112.74 54C1110.48 52 1107.34 51 1103.34 51C1100.68 51 1098.01 51.3333 1095.34 52C1092.81 52.6667 1090.61 53.6667 1088.74 55V124.4C1087.41 124.8 1085.28 125.2 1082.34 125.6C1079.54 126 1076.61 126.2 1073.54 126.2C1070.61 126.2 1067.94 126 1065.54 125.6C1063.28 125.2 1061.34 124.4 1059.74 123.2C1058.14 122 1056.88 120.4 1055.94 118.4C1055.14 116.267 1054.74 113.533 1054.74 110.2V50.2C1054.74 46.6 1055.48 43.6667 1056.94 41.4C1058.54 39.1333 1060.68 37.0667 1063.34 35.2C1067.88 32 1073.54 29.4 1080.34 27.4C1087.28 25.4 1094.94 24.4 1103.34 24.4C1118.41 24.4 1130.01 27.7333 1138.14 34.4C1146.28 40.9333 1150.34 50.0667 1150.34 61.8V124.4C1149.01 124.8 1146.88 125.2 1143.94 125.6C1141.14 126 1138.21 126.2 1135.14 126.2C1132.21 126.2 1129.54 126 1127.14 125.6C1124.88 125.2 1122.94 124.4 1121.34 123.2C1119.74 122 1118.48 120.4 1117.54 118.4C1116.74 116.267 1116.34 113.533 1116.34 110.2V63ZM1205.35 91.2C1205.35 94.6667 1206.41 97.1333 1208.55 98.6C1210.81 100.067 1213.95 100.8 1217.95 100.8C1219.95 100.8 1222.01 100.667 1224.15 100.4C1226.28 100 1228.15 99.5333 1229.75 99C1230.95 100.467 1231.95 102.133 1232.75 104C1233.68 105.733 1234.15 107.867 1234.15 110.4C1234.15 115.467 1232.21 119.6 1228.35 122.8C1224.61 126 1217.95 127.6 1208.35 127.6C1196.61 127.6 1187.55 124.933 1181.15 119.6C1174.88 114.267 1171.75 105.6 1171.75 93.6V8.00001C1173.21 7.60001 1175.28 7.2 1177.95 6.8C1180.75 6.26667 1183.68 6 1186.75 6C1192.61 6 1197.15 7.06667 1200.35 9.20001C1203.68 11.2 1205.35 15.5333 1205.35 22.2V35H1231.55C1232.35 36.4667 1233.08 38.3333 1233.75 40.6C1234.55 42.7333 1234.95 45.1333 1234.95 47.8C1234.95 52.4667 1233.88 55.8667 1231.75 58C1229.75 60 1227.01 61 1223.55 61H1205.35V91.2Z" fill="white"/>
<defs>
<linearGradient id="paint0_linear_14_2" x1="0" y1="0" x2="523" y2="160" gradientUnits="userSpaceOnUse">
<stop stop-color="#A855F7"/>
<stop offset="1" stop-color="#6366F1"/>
</linearGradient>
</defs>
</svg>
